<svg id="Layer_1" viewBox="0 0 24 24" xmlns="http://www.w3.org/2000/svg" data-name="Layer 1"><path d="m9 4.5c0 .939-.519 1.791-1.354 2.223-.538.277-.646.503-.646.777 0 .276-.224.5-.5.5s-.5-.224-.5-.5c0-.944.677-1.403 1.187-1.666.502-.259.813-.77.813-1.334 0-.827-.673-1.5-1.5-1.5s-1.5.673-1.5 1.5c0 .276-.224.5-.5.5s-.5-.224-.5-.5c0-1.378 1.122-2.5 2.5-2.5s2.5 1.122 2.5 2.5zm-2.5 4.5c-.552 0-1 .448-1 1s.448 1 1 1 1-.448 1-1-.448-1-1-1zm4.712 1.834c-1.362 1.396-3.277 2.166-5.391 2.166h-3.324c-1.47 0-2.497-1.221-2.497-2.97v-3.273c-.072-3.573 3.052-6.918 6.663-6.755 3.467.085 6.25 2.868 6.335 6.335.041 1.677-.593 3.274-1.786 4.497zm-.716-.698c1.003-1.028 1.537-2.369 1.502-3.774-.072-2.934-2.426-5.288-5.36-5.36-3.061-.141-5.701 2.73-5.638 5.754v3.273c0 1.197.587 1.97 1.497 1.97h3.324c1.842 0 3.502-.662 4.675-1.864zm1.504 4.778c0-.936.364-1.814 1.025-2.475l6.707-6.707c.975-.975 2.561-.975 3.535 0 .97.929.97 2.606 0 3.535l-6.707 6.707c-.661.661-1.54 1.025-2.475 1.025h-1.586c-.276 0-.5-.224-.5-.5v-1.586zm1 1.086h1.086c.667 0 1.295-.26 1.768-.732l6.707-6.707c.582-.558.582-1.563 0-2.121-.584-.585-1.537-.585-2.121 0l-6.707 6.707c-.473.472-.732 1.1-.732 1.768v1.086zm2.5-11h2.137l.682-.682c.121-.121.259-.214.39-.318h-3.208c-.276 0-.5.224-.5.5s.224.5.5.5zm7.5 17.354c0 .243-.128.457-.342.571-.217.116-.462.104-.666-.031l-4.089-2.727-.555-.168h-6.849c-1.933 0-3.5-1.567-3.5-3.5v-1c0-.276-.224-.5-.5-.5s-.5.224-.5.5v1c0 2.485 2.015 4.5 4.5 4.5h6.849l4.09 2.727c.275.184.594.276.913.276.883.017 1.667-.761 1.648-1.648v-10.99l-1 1v9.991z"/></svg>