<svg id="Layer_1" viewBox="0 0 24 24" xmlns="http://www.w3.org/2000/svg" data-name="Layer 1"><path d="m21.463 9.022c-.169-.219-.484-.257-.702-.089-.218.169-.258.483-.089.702.894 1.153 1.328 2.836 1.328 5.145 0 2.129-.269 4.288-.799 6.421-1.535.381-3.816.8-6.419.8-2.375 0-4.008-.418-5.14-1.316-.216-.172-.531-.135-.702.081-.172.216-.135.531.081.702 1.318 1.046 3.148 1.533 5.761 1.533 2.875 0 5.37-.492 6.956-.904.175-.045.312-.183.358-.358.6-2.308.904-4.649.904-6.958 0-2.539-.503-4.422-1.537-5.757z"/><path d="m17.436 9.221c0-7.286-4.392-8.221-8.218-8.221s-8.218.935-8.218 8.221c0 2.309.304 4.65.904 6.958.045.176.183.313.358.358 1.586.413 4.081.904 6.956.904 3.826 0 8.218-.935 8.218-8.221zm-15.436 0c0-5.129 2.091-7.221 7.218-7.221s7.218 2.092 7.218 7.221-2.091 7.221-7.218 7.221c-2.603 0-4.884-.419-6.419-.8-.53-2.133-.799-4.292-.799-6.421z"/><path d="m10.934 7.523c-.026 1.452-.505 1.72-1.437 1.726-.275.001-.497.225-.497.5v.751c0 .276.224.5.5.5s.5-.224.5-.5v-.284c1.286-.174 1.904-1.037 1.934-2.692-.03-1.709-1.019-2.696-2.719-2.708-1.719.011-2.683.972-2.713 2.708-.005.276.215.504.491.509.262-.005.504-.215.509-.491.021-1.186.551-1.718 1.713-1.725 1.153.008 1.7.556 1.72 1.707z"/><circle cx="9.505" cy="13.499" r=".755"/></svg>